<?xml version="1.0" encoding="utf-8" ?><svg xmlns="http://www.w3.org/2000/svg" xmlns:xlink="http://www.w3.org/1999/xlink" width="201" height="115" viewBox="0 0 201 115"><path transform="scale(0.149554 0.149554)" d="M650.331 76.6674C653.525 76.7493 672.574 88.4993 677.221 91.2055L724.236 118.683L838.043 184.402C862.137 198.431 889.588 215.51 913.768 228.361C902.005 235.821 889.665 243.4 877.443 250.046C801.57 291.307 727.852 339.068 652.095 380.22L651.684 691.948L651.493 692.778C648.165 692.878 613.271 671.213 607.688 667.937C575.366 649.19 543.148 630.265 511.036 611.162C470.569 587.364 430.123 564.756 389.777 540.492C389.322 503.264 389.713 465.228 389.711 427.917L389.85 227.566C423.219 210.116 462.096 186.227 495.033 166.992C546.955 137.153 598.721 107.044 650.331 76.6674ZM422.47 521.257C438.863 530.968 614.51 635.569 619.726 636.459L619.992 635.477C620.519 605.758 619.781 576.987 619.687 547.389C619.984 495.943 619.953 444.496 619.595 393.05C583.837 371.491 547.151 350.997 511.065 329.969C481.584 312.79 451.756 296.646 422.589 278.869L422.47 521.257ZM454.332 229.187C471.609 239.151 648.014 342.22 651.974 342.519C716.476 303.576 782.843 267.036 847.83 228.737C830.748 217.986 812.833 208.121 795.327 198.002C765.719 180.675 736.016 163.509 706.222 146.505C699.099 142.384 655.553 116.094 650.656 114.851C630.562 126.237 610.687 138.464 590.675 150.061C545.051 176.132 499.603 202.508 454.332 229.187Z"/><path transform="scale(0.149554 0.149554)" d="M460.635 322.198C470.698 326.825 483.881 334.925 493.722 340.674L494.039 477.658C526.628 497.07 559.836 515.625 592.27 535.201C592.172 547.391 592.356 559.856 592.403 572.069C585.961 569.875 563.435 556.56 556.106 552.406C524.104 534.083 492.254 515.496 460.558 496.647L460.635 322.198Z"/><path transform="scale(0.149554 0.149554)" d="M650.67 148.447C653.998 149.759 661.51 154.527 664.932 156.597C674.073 162.18 683.252 167.701 692.468 173.16C728.269 193.916 763.934 213.831 799.637 234.983C750.78 263.09 699.475 291.567 651.574 320.9C634.725 312.569 611.795 298.792 595.166 289.233C564.137 271.487 533.328 253.359 502.747 234.851L650.67 148.447ZM568.423 235.122C596.186 250.621 623.724 266.52 651.028 282.814C676.573 267.322 708.559 251.075 732.637 234.985C707.775 218.945 676.673 203.03 650.633 187.027L597.329 218.476C589.125 223.229 575.877 230.051 568.423 235.122Z"/><path transform="scale(0.149554 0.149554)" d="M911.954 259.891C913.053 262.643 912.253 323.382 912.251 331.859L912.436 540.789C903.016 547.278 891.486 553.591 881.483 559.317L835.874 585.587L678.671 677.467C676.739 675.008 677.9 644.494 678.001 639.084C688.319 633.55 699.797 626.507 710.03 620.559C709.589 597.202 709.965 572.42 709.979 548.959L710.068 414.991C727.228 406.525 747.21 393.526 764.327 383.948C802.907 362.358 841.407 338.713 880.037 317.347C880.313 304.393 880.114 290.734 880.134 277.724C889.883 272.016 901.964 264.783 911.954 259.891ZM742.699 435.339L742.869 476.707C758.769 467.601 774.611 458.393 790.392 449.084C800.35 443.209 812.544 435.539 822.703 430.544C822.487 443.424 822.689 456.596 822.389 469.345C804.69 480.355 785.42 491.254 767.26 501.575C759.028 506.249 750.883 511.073 742.827 516.044C742.797 543.104 742.125 573.621 743.166 600.369C756.587 593.67 771.235 584.67 784.352 577.033L847.197 540.609C855.491 535.814 871.841 525.717 880.07 521.789C879.965 511.06 880.189 356.879 879.467 355.884L791.177 407.128C776.31 415.696 756.586 426.085 742.699 435.339Z"/></svg>