<svg xmlns="http://www.w3.org/2000/svg" width="1280" height="800" viewBox="0 0 1280 800" role="img" aria-labelledby="title desc">
  <title id="title">Services video poster</title>
  <desc id="desc">A dark Lumen Forge placeholder poster for the hero services video.</desc>
  <defs>
    <radialGradient id="glow" cx="50%" cy="35%" r="70%">
      <stop offset="0%" stop-color="#eab308" stop-opacity="0.24"/>
      <stop offset="52%" stop-color="#eab308" stop-opacity="0.06"/>
      <stop offset="100%" stop-color="#050506" stop-opacity="0"/>
    </radialGradient>
    <linearGradient id="panel" x1="0" x2="1" y1="0" y2="1">
      <stop offset="0%" stop-color="#1e1e24"/>
      <stop offset="100%" stop-color="#0a0a0b"/>
    </linearGradient>
  </defs>
  <rect width="1280" height="800" fill="#050506"/>
  <rect width="1280" height="800" fill="url(#glow)"/>
  <g opacity="0.22" stroke="#ffffff" stroke-width="1">
    <path d="M0 80H1280M0 160H1280M0 240H1280M0 320H1280M0 400H1280M0 480H1280M0 560H1280M0 640H1280M0 720H1280"/>
    <path d="M80 0V800M160 0V800M240 0V800M320 0V800M400 0V800M480 0V800M560 0V800M640 0V800M720 0V800M800 0V800M880 0V800M960 0V800M1040 0V800M1120 0V800M1200 0V800"/>
  </g>
  <rect x="216" y="172" width="848" height="456" rx="28" fill="url(#panel)" stroke="#eab308" stroke-opacity="0.32"/>
  <circle cx="640" cy="378" r="72" fill="#0a0a0b" fill-opacity="0.82" stroke="#eab308" stroke-opacity="0.55"/>
  <path d="M620 337L684 378L620 419Z" fill="#eab308"/>
  <text x="640" y="520" fill="#f0ede8" font-family="Arial, Helvetica, sans-serif" font-size="42" font-weight="700" text-anchor="middle">Services Overview</text>
  <text x="640" y="568" fill="#9b9898" font-family="Arial, Helvetica, sans-serif" font-size="22" letter-spacing="4" text-anchor="middle">WEB DEVELOPMENT · AI INTEGRATION · AR</text>
</svg>
